<?xml version="1.0" encoding="utf-8"?>
<svg version="1.1" id="Layer_1" xmlns="http://www.w3.org/2000/svg" x="0px" y="0px" viewBox="0 0 96 96" xml:space="preserve">
	<path style="fill:#7f7f7f;" d="M79.2,73.1L62.7,56.5c3-4.2,4.8-9.4,4.8-15c0-14.4-11.7-26-26-26s-26,11.7-26,26s11.7,26,26,26
		c5.6,0,10.8-1.8,15-4.8l16.6,16.5c0.8,0.9,2,1.3,3,1.3s2.3-0.4,3-1.3C80.9,77.5,80.9,74.8,79.2,73.1L79.2,73.1z M41.5,61.9
		c-11.2,0-20.4-9.1-20.4-20.4s9.1-20.4,20.4-20.4s20.4,9.1,20.4,20.4S52.7,61.9,41.5,61.9z"/>
</svg>
